<svg xmlns="http://www.w3.org/2000/svg" viewBox="0 0 40 40" fill="none">
  <!-- Seal/starburst shape -->
  <path d="M20,3 L23.2,7.5 L28.5,5.8 L29.2,11.3 L34.7,12 L33,17.3 L37,20 L33,22.7 L34.7,28 L29.2,28.7 L28.5,34.2 L23.2,32.5 L20,37 L16.8,32.5 L11.5,34.2 L10.8,28.7 L5.3,28 L7,22.7 L3,20 L7,17.3 L5.3,12 L10.8,11.3 L11.5,5.8 L16.8,7.5 Z" fill="currentColor"/>
  <!-- White checkmark circle -->
  <circle cx="30" cy="30" r="6" fill="white"/>
  <circle cx="30" cy="30" r="5" fill="currentColor" opacity="0.9"/>
  <path d="M27.8 30l1.5 1.5 3-3" stroke="white" stroke-width="1.3" fill="none" stroke-linecap="round" stroke-linejoin="round"/>
</svg>
