<svg xmlns="http://www.w3.org/2000/svg" viewBox="0 0 40 40" fill="none">
  <!-- 3D Shield shape -->
  <defs>
    <linearGradient id="sg" x1="0" y1="0" x2="0.8" y2="1">
      <stop offset="0%" stop-color="#7dd3fc"/>
      <stop offset="45%" stop-color="#38bdf8"/>
      <stop offset="100%" stop-color="#0284c7"/>
    </linearGradient>
    <linearGradient id="shine" x1="0.5" y1="0" x2="0.5" y2="1">
      <stop offset="0%" stop-color="white" stop-opacity="0.4"/>
      <stop offset="50%" stop-color="white" stop-opacity="0"/>
    </linearGradient>
  </defs>
  <path d="M20,2 C20,2 6,6 6,6 C6,6 4,8 4,10 L4,18 C4,26 10,33 20,38 C30,33 36,26 36,18 L36,10 C36,8 34,6 34,6 Z" fill="url(#sg)"/>
  <path d="M20,2 C20,2 6,6 6,6 C6,6 4,8 4,10 L4,18 C4,26 10,33 20,38 C30,33 36,26 36,18 L36,10 C36,8 34,6 34,6 Z" fill="url(#shine)"/>
  <!-- Checkmark -->
  <circle cx="30" cy="31" r="6" fill="white"/>
  <circle cx="30" cy="31" r="5" fill="currentColor" opacity="0.9"/>
  <path d="M27.5 31l1.8 1.8 3.2-3.2" stroke="white" stroke-width="1.3" fill="none" stroke-linecap="round" stroke-linejoin="round"/>
</svg>
