<svg xmlns="http://www.w3.org/2000/svg" viewBox="0 0 32 36" fill="none">
  <!-- Shield -->
  <path d="M16 0L0 6.5v10c0 9.5 6.8 18.4 16 20.5 9.2-2.1 16-11 16-20.5v-10L16 0z" fill="currentColor"/>
  <!-- Dove/bird silhouette -->
  <path d="M22.5 11.5c-1.2-0.8-2.8-0.6-3.8 0.2-0.6-1.2-1.6-2.2-2.7-2.2s-2.1 1-2.7 2.2c-1-0.8-2.6-1-3.8-0.2-0.8 0.5-1 1.5-0.5 2.5 0.8 1.5 2.5 3 4.2 4.5l1.5 1.3c0.4 0.3 0.8 0.6 1.3 0.6s0.9-0.3 1.3-0.6l1.5-1.3c1.7-1.5 3.4-3 4.2-4.5 0.5-1 0.3-2-0.5-2.5z" fill="white"/>
  <!-- Wing detail left -->
  <path d="M10.5 15c-0.5 0.3-1.5-0.2-2.2-1s-0.8-1.8-0.3-2c0.5-0.3 1.5 0.2 2.2 1s0.8 1.8 0.3 2z" fill="rgba(255,255,255,0.6)"/>
  <!-- Wing detail right -->
  <path d="M21.5 15c0.5 0.3 1.5-0.2 2.2-1s0.8-1.8 0.3-2c-0.5-0.3-1.5 0.2-2.2 1s-0.8 1.8-0.3 2z" fill="rgba(255,255,255,0.6)"/>
</svg>